General

Format                           : MPEG-4
Format profile                   : Base Media
Codec ID                         : isom
File size                        : 78.3 MiB
Duration                         : 3mn 41s
Overall bit rate                 : 2 967 Kbps
Encoded date                     : UTC 2012-03-13 15:33:09
Tagged date                      : UTC 2012-03-13 15:33:09

Video
ID                               : 1
Format                           : AVC
Format/Info                      : Advanced Video Codec
Format profile                   : High@L3.0
Format settings, CABAC           : Yes
Format settings, ReFrames        : 2 frames
Codec ID                         : avc1
Codec ID/Info                    : Advanced Video Coding
Duration                         : 3mn 41s
Bit rate mode                    : Variable
Bit rate                         : 2 865 Kbps
Maximum bit rate                 : 10.5 Mbps
Width                            : 720 pixels
Height                           : 480 pixels
Display aspect ratio             : 4:3
Original display aspect ratio    : 4:3
Frame rate mode                  : Constant
Frame rate                       : 29.970 fps
Standard                         : NTSC
Color space                      : YUV
Chroma subsampling               : 4:2:0
Bit depth                        : 8 bits
Scan type                        : Progressive
Bits/(Pixel*Frame)               : 0.277
Stream size                      : 76.2 MiB (97%)


Audio
ID                               : 2
Format                           : AAC
Format/Info                      : Advanced Audio Codec
Format profile                   : LC
Codec ID                         : 40
Duration                         : 3mn 41s
Bit rate mode                    : Variable
Bit rate                         : 69.4 Kbps
Maximum bit rate                 : 78.6 Kbps
Channel(s)                       : 2 channels
Channel positions                : Front: L R
Sampling rate                    : 48.0 KHz
Compression mode                 : Lossy
Stream size                      : 1.83 MiB (2%)


